<svg width="28" height="23" viewBox="0 0 28 23" fill="none" xmlns="http://www.w3.org/2000/svg">
<path d="M18.3193 11.2358H16.962C16.559 9.67492 15.7262 8.25835 14.5583 7.14709C13.3904 6.03584 11.9343 5.27444 10.3553 4.94942C8.77627 4.62441 7.13777 4.74881 5.62595 5.30848C4.11412 5.86816 2.7896 6.84067 1.80287 8.11551C0.816143 9.39035 0.206784 10.9164 0.0440338 12.5203C-0.118717 14.1241 0.171667 15.7415 0.88219 17.1885C1.59271 18.6356 2.69488 19.8544 4.06346 20.7063C5.43204 21.5583 7.01215 22.0093 8.62424 22.0081H18.3193C19.7478 22.0081 21.1178 21.4406 22.1279 20.4305C23.1379 19.4204 23.7054 18.0504 23.7054 16.622C23.7054 15.1935 23.1379 13.8235 22.1279 12.8134C21.1178 11.8033 19.7478 11.2358 18.3193 11.2358Z" fill="#4ECCA3"/>
<path d="M9 10.8317C9 10.0405 9.87525 9.56266 10.5408 9.99049L15.8582 13.4088C16.4705 13.8025 16.4705 14.6975 15.8582 15.0912L10.5408 18.5095C9.87525 18.9373 9 18.4595 9 17.6683V10.8317Z" fill="white"/>
<path d="M22.4087 8.97364C22.6672 8.38418 22.734 7.72839 22.5997 7.09889C22.4654 6.46939 22.1367 5.898 21.66 5.46542C21.1834 5.03285 20.5829 4.76096 19.9433 4.68814C19.3038 4.61533 18.6575 4.74528 18.0958 5.05964L18.4542 5.69994C18.8817 5.46068 19.3736 5.36177 19.8603 5.41719C20.3471 5.47261 20.8041 5.67955 21.1669 6.00878C21.5297 6.33802 21.7799 6.7729 21.8821 7.25202C21.9843 7.73114 21.9335 8.23026 21.7367 8.67891L22.4087 8.97364Z" fill="white"/>
<path d="M25.2531 8.41767C25.6653 7.47797 25.7718 6.43252 25.5577 5.42899C25.3435 4.42546 24.8195 3.51457 24.0597 2.82497C23.2998 2.13538 22.3425 1.70193 21.323 1.58586C20.3034 1.46978 19.2732 1.67694 18.3778 2.17808L18.7364 2.819C19.4976 2.39303 20.3733 2.21694 21.2399 2.31561C22.1065 2.41427 22.9202 2.7827 23.5661 3.36886C24.212 3.95501 24.6574 4.72927 24.8394 5.58227C25.0214 6.43527 24.9309 7.3239 24.5805 8.12265L25.2531 8.41767Z" fill="white"/>
</svg>
