<svg width="18" height="24" viewBox="0 0 18 24" fill="none" xmlns="http://www.w3.org/2000/svg">
<path d="M16.8261 11.9997C16.8261 11.9997 17.138 15.7198 14.282 17.6399C14.282 17.6399 19.8741 6.5519 7.92198 0C7.92198 0 9.60201 2.856 5.66597 6.2879C2.37795 9.1439 -5.44605 18.5761 6.04992 23.9999C6.04992 23.9999 1.39401 17.9039 7.17786 14.544C7.17786 14.544 4.96988 18.0959 8.92987 21.0959C11.2821 18.648 10.6581 17.4 10.6581 17.4C10.6581 17.4 14.066 20.1359 11.5461 24C11.5461 24 21.1222 21.6958 16.8261 11.9997Z" fill="url(#paint0_linear_97_94)"/>
<defs>
<linearGradient id="paint0_linear_97_94" x1="8.96733" y1="0" x2="8.96733" y2="24" gradientUnits="userSpaceOnUse">
<stop stop-color="#951301"/>
<stop offset="0.333333" stop-color="#F24019"/>
<stop offset="1" stop-color="#FFD954" stop-opacity="0.8"/>
</linearGradient>
</defs>
</svg>
